<?xml version="1.0" encoding="UTF-8"?>
<!DOCTYPE svg PUBLIC "-//W3C//DTD SVG 1.1//EN" "http://www.w3.org/Graphics/SVG/1.1/DTD/svg11.dtd">
<svg xmlns="http://www.w3.org/2000/svg" version="1.1" width="512px" height="512px" style="shape-rendering:geometricPrecision; text-rendering:geometricPrecision; image-rendering:optimizeQuality; fill-rule:evenodd; clip-rule:evenodd" xmlns:xlink="http://www.w3.org/1999/xlink">
<g><path style="opacity:1" fill="#000000" d="M 116.5,17.5 C 184.834,17.3333 253.167,17.5 321.5,18C 355.106,24.2722 375.606,44.1055 383,77.5C 383.499,82.4889 383.666,87.4889 383.5,92.5C 323.28,87.1866 278.78,110.853 250,163.5C 230.424,209.401 234.424,253.068 262,294.5C 292.998,333.569 333.498,350.569 383.5,345.5C 383.667,390.835 383.5,436.168 383,481.5C 376.044,494.022 366.211,496.855 353.5,490C 308.944,450.274 263.944,411.107 218.5,372.5C 173.685,411.48 129.018,450.647 84.5,490C 75.6298,495.028 67.1298,494.528 59,488.5C 56.5224,485.211 54.8558,481.544 54,477.5C 53.0154,343.813 53.3487,210.147 55,76.5C 63.0205,43.643 83.5205,23.9763 116.5,17.5 Z"/></g>
<g><path style="opacity:1" fill="#000000" d="M 351.5,127.5 C 392.976,123.655 424.476,139.321 446,174.5C 463.83,212.387 459.83,247.721 434,280.5C 403.417,310.751 367.917,318.251 327.5,303C 282.942,279.04 266.109,242.207 277,192.5C 289.578,156.753 314.411,135.087 351.5,127.5 Z M 361.5,164.5 C 374.025,164.198 381.192,170.198 383,182.5C 383.5,188.825 383.666,195.158 383.5,201.5C 392.25,201.09 400.916,201.59 409.5,203C 420.033,209.725 422.199,218.558 416,229.5C 414.127,231.709 411.96,233.542 409.5,235C 400.916,236.41 392.25,236.91 383.5,236.5C 383.787,244.886 383.287,253.219 382,261.5C 374.197,274.772 364.197,276.772 352,267.5C 351,265.833 350,264.167 349,262.5C 347.59,253.916 347.09,245.25 347.5,236.5C 339.493,236.666 331.493,236.5 323.5,236C 310.814,229.423 307.981,219.923 315,207.5C 317.408,205.044 320.241,203.211 323.5,202C 331.493,201.5 339.493,201.334 347.5,201.5C 347.09,192.75 347.59,184.084 349,175.5C 351.505,169.822 355.671,166.155 361.5,164.5 Z"/></g>
</svg>
