<?xml version="1.0" encoding="UTF-8"?>
<!DOCTYPE svg PUBLIC "-//W3C//DTD SVG 1.1//EN" "http://www.w3.org/Graphics/SVG/1.1/DTD/svg11.dtd">
<svg xmlns="http://www.w3.org/2000/svg" version="1.1" width="512px" height="512px" style="shape-rendering:geometricPrecision; text-rendering:geometricPrecision; image-rendering:optimizeQuality; fill-rule:evenodd; clip-rule:evenodd" xmlns:xlink="http://www.w3.org/1999/xlink">
<g><path style="opacity:1" fill="#000000" d="M 250.5,-0.5 C 263.833,-0.5 277.167,-0.5 290.5,-0.5C 357.202,9.06302 407.702,42.7297 442,100.5C 465.961,145.857 471.961,193.523 460,243.5C 451.99,273.457 437.99,300.124 418,323.5C 391.988,345.859 377.988,374.192 376,408.5C 375.667,439.833 375.333,471.167 375,502.5C 373.312,506.685 370.479,509.685 366.5,511.5C 302.5,511.5 238.5,511.5 174.5,511.5C 170.521,509.685 167.688,506.685 166,502.5C 165.5,484.836 165.333,467.17 165.5,449.5C 148.497,449.667 131.497,449.5 114.5,449C 111.265,447.64 108.765,445.473 107,442.5C 105.512,404.919 105.012,367.253 105.5,329.5C 88.83,329.667 72.1633,329.5 55.5,329C 45.5579,324.419 42.7246,316.919 47,306.5C 68.0233,265.065 77.69,221.065 76,174.5C 87.0546,95.795 129.221,41.295 202.5,11C 218.257,5.55921 234.257,1.72588 250.5,-0.5 Z M 265.5,60.5 C 276.776,58.708 283.276,63.3747 285,74.5C 285.17,80.1958 285.67,85.8624 286.5,91.5C 303.627,94.4825 319.127,101.149 333,111.5C 338.239,105.59 344.072,100.423 350.5,96C 357.834,94.2214 363.667,96.3881 368,102.5C 370.472,108.591 369.805,114.258 366,119.5C 361.833,123.667 357.667,127.833 353.5,132C 363.685,145.542 370.185,160.709 373,177.5C 380.268,179.177 387.768,180.344 395.5,181C 403.305,184.781 406.138,190.947 404,199.5C 401.538,205.487 397.038,208.654 390.5,209C 384.804,209.17 379.138,209.67 373.5,210.5C 370.518,227.627 363.851,243.127 353.5,257C 359.41,262.239 364.577,268.072 369,274.5C 370.779,281.834 368.612,287.667 362.5,292C 356.409,294.472 350.742,293.805 345.5,290C 341.333,285.833 337.167,281.667 333,277.5C 319.462,287.683 304.296,294.183 287.5,297C 285.823,304.268 284.656,311.768 284,319.5C 279.56,328.296 272.727,330.796 263.5,327C 261,325.833 259.167,324 258,321.5C 256.113,313.646 254.946,305.646 254.5,297.5C 237.369,294.515 221.869,287.848 208,277.5C 202.761,283.41 196.928,288.577 190.5,293C 183.166,294.779 177.333,292.612 173,286.5C 170.528,280.409 171.195,274.742 175,269.5C 179.167,265.333 183.333,261.167 187.5,257C 177.315,243.458 170.815,228.291 168,211.5C 160.732,209.823 153.232,208.656 145.5,208C 137.695,204.219 134.862,198.053 137,189.5C 139.462,183.513 143.962,180.346 150.5,180C 156.196,179.83 161.862,179.33 167.5,178.5C 170.482,161.373 177.149,145.873 187.5,132C 181.59,126.761 176.423,120.928 172,114.5C 170.221,107.166 172.388,101.333 178.5,97C 184.591,94.5283 190.258,95.1949 195.5,99C 199.667,103.167 203.833,107.333 208,111.5C 221.542,101.315 236.709,94.8148 253.5,92C 255.177,84.7316 256.344,77.2316 257,69.5C 258.688,65.3148 261.521,62.3148 265.5,60.5 Z M 261.5,150.5 C 288.542,148.067 306.042,159.733 314,185.5C 316.651,212.377 305.151,229.877 279.5,238C 252.623,240.651 235.123,229.151 227,203.5C 224.287,176.411 235.787,158.744 261.5,150.5 Z"/></g>
<g><path style="opacity:1" fill="#000000" d="M 269.5,118.5 C 310.441,121.277 335.608,142.611 345,182.5C 348.828,220.02 333.995,247.186 300.5,264C 263.325,276.826 232.492,267.993 208,237.5C 194.074,214.331 191.74,189.998 201,164.5C 214.921,135.796 237.754,120.463 269.5,118.5 Z M 261.5,150.5 C 235.787,158.744 224.287,176.411 227,203.5C 235.123,229.151 252.623,240.651 279.5,238C 305.151,229.877 316.651,212.377 314,185.5C 306.042,159.733 288.542,148.067 261.5,150.5 Z"/></g>
<g><path style="opacity:1" fill="#000000" d="M 269.5,178.5 C 285.507,181.852 289.673,190.852 282,205.5C 274.466,210.811 266.966,210.811 259.5,205.5C 258.139,203.972 256.972,202.305 256,200.5C 253.483,188.571 257.983,181.238 269.5,178.5 Z"/></g>
</svg>
