<?xml version="1.0" encoding="UTF-8"?>
<!DOCTYPE svg PUBLIC "-//W3C//DTD SVG 1.1//EN" "http://www.w3.org/Graphics/SVG/1.1/DTD/svg11.dtd">
<svg xmlns="http://www.w3.org/2000/svg" version="1.1" width="512px" height="512px" style="shape-rendering:geometricPrecision; text-rendering:geometricPrecision; image-rendering:optimizeQuality; fill-rule:evenodd; clip-rule:evenodd" xmlns:xlink="http://www.w3.org/1999/xlink">
<g><path style="opacity:1" fill="#000000" d="M 130.5,31.5 C 211.501,31.3333 292.501,31.5 373.5,32C 378,33.8333 381.167,37 383,41.5C 383.5,59.4969 383.667,77.4969 383.5,95.5C 401.503,95.3334 419.503,95.5001 437.5,96C 442,97.8333 445.167,101 447,105.5C 447.667,226.833 447.667,348.167 447,469.5C 445.167,474 442,477.167 437.5,479C 335.167,479.667 232.833,479.667 130.5,479C 101.481,473.649 80.9808,457.482 69,430.5C 66.7228,424.668 65.0561,418.668 64,412.5C 63.3333,307.833 63.3333,203.167 64,98.5C 69.3514,69.4808 85.5181,48.9808 112.5,37C 118.531,34.8324 124.531,32.999 130.5,31.5 Z M 383.5,127.5 C 394.167,127.5 404.833,127.5 415.5,127.5C 415.5,234.167 415.5,340.833 415.5,447.5C 321.812,447.978 228.145,447.478 134.5,446C 114.449,441.616 101.949,429.45 97,409.5C 93.9323,389.69 100.099,373.523 115.5,361C 121.008,357.246 127.008,354.58 133.5,353C 213.481,351.696 293.481,351.029 373.5,351C 378,349.167 381.167,346 383,341.5C 383.5,270.167 383.667,198.834 383.5,127.5 Z"/></g>
<g><path style="opacity:1" fill="#000000" d="M 136.5,383.5 C 215.501,383.333 294.501,383.5 373.5,384C 383.032,389.252 385.865,397.085 382,407.5C 380.093,411.039 377.26,413.539 373.5,415C 294.5,415.667 215.5,415.667 136.5,415C 126.284,408.304 124.118,399.47 130,388.5C 131.965,386.45 134.132,384.783 136.5,383.5 Z"/></g>
</svg>
