<?xml version="1.0" encoding="UTF-8"?>
<!DOCTYPE svg PUBLIC "-//W3C//DTD SVG 1.1//EN" "http://www.w3.org/Graphics/SVG/1.1/DTD/svg11.dtd">
<svg xmlns="http://www.w3.org/2000/svg" version="1.1" width="512px" height="512px" style="shape-rendering:geometricPrecision; text-rendering:geometricPrecision; image-rendering:optimizeQuality; fill-rule:evenodd; clip-rule:evenodd" xmlns:xlink="http://www.w3.org/1999/xlink">
<g><path style="opacity:1" fill="#000000" d="M 294.5,63.5 C 307.247,61.5976 314.58,66.9309 316.5,79.5C 305.007,121.808 293.673,164.142 282.5,206.5C 304.94,212.194 327.274,218.361 349.5,225C 357.367,230.267 359.867,237.434 357,246.5C 311.246,312.342 265.246,378.008 219,443.5C 209.484,449.635 200.817,448.635 193,440.5C 191.455,437.698 190.622,434.698 190.5,431.5C 202.803,384.788 215.803,338.288 229.5,292C 207.601,285.358 185.601,279.025 163.5,273C 151.866,266.095 149.7,256.928 157,245.5C 199.667,187.5 242.333,129.5 285,71.5C 287.795,68.1894 290.961,65.5228 294.5,63.5 Z"/></g>
</svg>
