<?xml version="1.0" encoding="UTF-8"?>
<!DOCTYPE svg PUBLIC "-//W3C//DTD SVG 1.1//EN" "http://www.w3.org/Graphics/SVG/1.1/DTD/svg11.dtd">
<svg xmlns="http://www.w3.org/2000/svg" version="1.1" width="512px" height="512px" style="shape-rendering:geometricPrecision; text-rendering:geometricPrecision; image-rendering:optimizeQuality; fill-rule:evenodd; clip-rule:evenodd" xmlns:xlink="http://www.w3.org/1999/xlink">
<g><path style="opacity:1" fill="#000000" d="M 232.5,-0.5 C 247.833,-0.5 263.167,-0.5 278.5,-0.5C 368.144,10.3879 435.644,54.7213 481,132.5C 497.695,163.971 507.861,197.304 511.5,232.5C 511.5,247.833 511.5,263.167 511.5,278.5C 500.612,368.144 456.279,435.644 378.5,481C 347.029,497.695 313.696,507.861 278.5,511.5C 263.167,511.5 247.833,511.5 232.5,511.5C 142.856,500.612 75.3562,456.279 30,378.5C 13.3053,347.029 3.1386,313.696 -0.5,278.5C -0.5,263.167 -0.5,247.833 -0.5,232.5C 10.3875,142.857 54.7208,75.3573 132.5,30C 163.971,13.3053 197.304,3.1386 232.5,-0.5 Z M 250.5,99.5 C 282.756,98.3876 309.589,109.721 331,133.5C 349.205,162.155 350.205,191.489 334,221.5C 322.157,238.682 308.157,254.015 292,267.5C 282.305,277.896 277.305,290.229 277,304.5C 270.654,323.284 258.488,328.45 240.5,320C 234.088,314.677 230.755,307.844 230.5,299.5C 231.899,276.121 240.399,255.788 256,238.5C 265.03,229.136 274.363,220.136 284,211.5C 292.645,202.543 297.812,191.876 299.5,179.5C 297.597,161.427 287.597,150.927 269.5,148C 253.903,144.788 239.237,147.121 225.5,155C 220.618,158.214 216.785,162.381 214,167.5C 211.792,182.667 203.292,191.667 188.5,194.5C 169.795,190.969 162.628,179.969 167,161.5C 174.392,135.772 190.559,117.938 215.5,108C 226.962,103.717 238.628,100.884 250.5,99.5 Z M 247.5,361.5 C 265.794,359.805 276.461,367.971 279.5,386C 277.671,401.163 269.171,409.663 254,411.5C 238.815,409.649 230.315,401.149 228.5,386C 230.242,374.111 236.575,365.944 247.5,361.5 Z"/></g>
</svg>
