<?xml version="1.0" standalone="no"?>
<!DOCTYPE svg PUBLIC "-//W3C//DTD SVG 20010904//EN"
 "http://www.w3.org/TR/2001/REC-SVG-20010904/DTD/svg10.dtd">
<svg version="1.0" xmlns="http://www.w3.org/2000/svg"
 width="512.000000pt" height="512.000000pt" viewBox="0 0 512.000000 512.000000"
 preserveAspectRatio="xMidYMid meet">

<g transform="translate(0.000000,512.000000) scale(0.100000,-0.100000)"
fill="#000000" stroke="none">
<path d="M2562 5108 c-9 -9 -12 -94 -12 -320 l0 -308 -22 0 c-67 0 -267 -23
-363 -41 -856 -160 -1544 -802 -1760 -1642 -51 -202 -68 -342 -68 -562 1 -351
66 -644 212 -950 120 -250 256 -443 450 -635 343 -340 753 -546 1246 -626 136
-22 473 -25 615 -6 657 92 1222 449 1586 1002 182 275 335 692 337 916 0 61
-4 78 -33 133 -38 72 -73 104 -149 139 -100 46 -236 27 -320 -44 -61 -52 -89
-108 -117 -235 -118 -527 -419 -917 -890 -1152 -92 -46 -284 -110 -399 -133
-129 -26 -484 -26 -605 -1 -341 73 -620 226 -857 468 -426 436 -570 1062 -377
1639 187 559 664 974 1241 1079 59 11 145 22 191 26 l82 5 0 -309 c0 -262 2
-310 15 -321 8 -7 23 -10 33 -8 15 4 1027 742 1215 886 43 32 57 49 55 65 -2
15 -191 159 -633 484 -346 254 -637 463 -645 463 -9 0 -21 -5 -28 -12z"/>
</g>
</svg>
