<?xml version="1.0" encoding="UTF-8"?>
<!DOCTYPE svg PUBLIC "-//W3C//DTD SVG 1.1//EN" "http://www.w3.org/Graphics/SVG/1.1/DTD/svg11.dtd">
<svg xmlns="http://www.w3.org/2000/svg" version="1.1" width="512px" height="512px" style="shape-rendering:geometricPrecision; text-rendering:geometricPrecision; image-rendering:optimizeQuality; fill-rule:evenodd; clip-rule:evenodd" xmlns:xlink="http://www.w3.org/1999/xlink">
<g><path style="opacity:1" fill="#000000" d="M 108.5,87.5 C 109.552,87.3505 110.552,87.5172 111.5,88C 159.347,136.014 207.347,183.847 255.5,231.5C 303.653,183.847 351.653,136.014 399.5,88C 400.5,87.3333 401.5,87.3333 402.5,88C 409.333,94.8333 416.167,101.667 423,108.5C 423.667,109.5 423.667,110.5 423,111.5C 374.986,159.347 327.153,207.347 279.5,255.5C 327.153,303.653 374.986,351.653 423,399.5C 423.667,400.5 423.667,401.5 423,402.5C 416.167,409.333 409.333,416.167 402.5,423C 401.5,423.667 400.5,423.667 399.5,423C 351.653,374.986 303.653,327.153 255.5,279.5C 207.347,327.153 159.347,374.986 111.5,423C 110.5,423.667 109.5,423.667 108.5,423C 101.667,416.167 94.8333,409.333 88,402.5C 87.3333,401.5 87.3333,400.5 88,399.5C 136.014,351.653 183.847,303.653 231.5,255.5C 183.847,207.347 136.014,159.347 88,111.5C 87.3333,110.5 87.3333,109.5 88,108.5C 95.0359,101.632 101.869,94.6315 108.5,87.5 Z"/></g>
</svg>
