<?xml version="1.0" encoding="UTF-8"?>
<!DOCTYPE svg PUBLIC "-//W3C//DTD SVG 1.1//EN" "http://www.w3.org/Graphics/SVG/1.1/DTD/svg11.dtd">
<svg xmlns="http://www.w3.org/2000/svg" version="1.1" width="512px" height="512px" style="shape-rendering:geometricPrecision; text-rendering:geometricPrecision; image-rendering:optimizeQuality; fill-rule:evenodd; clip-rule:evenodd" xmlns:xlink="http://www.w3.org/1999/xlink">
<g><path style="opacity:1" fill="#000000" d="M 117.5,31.5 C 209.501,31.3333 301.501,31.5 393.5,32C 413.333,37.1667 425.833,49.6667 431,69.5C 431.667,166.833 431.667,264.167 431,361.5C 425.833,381.333 413.333,393.833 393.5,399C 304.148,399.026 214.814,399.693 125.5,401C 108.148,404.754 94.9817,414.254 86,429.5C 83.2305,427.399 81.2305,424.732 80,421.5C 79.3333,304.167 79.3333,186.833 80,69.5C 85.3488,49.6518 97.8488,36.9852 117.5,31.5 Z M 202.5,96.5 C 209.555,95.1111 215.388,97.1111 220,102.5C 236.608,140.05 252.942,177.717 269,215.5C 273.175,230.978 267.342,238.478 251.5,238C 248.12,236.629 245.287,234.462 243,231.5C 239.496,223.649 235.996,215.816 232.5,208C 215.837,207.5 199.17,207.333 182.5,207.5C 179.57,216.031 176.07,224.365 172,232.5C 165.749,239.011 158.582,240.177 150.5,236C 144.947,231.382 143.114,225.549 145,218.5C 161.667,179.833 178.333,141.167 195,102.5C 197.114,99.8792 199.614,97.8792 202.5,96.5 Z M 319.5,143.5 C 331.886,143.106 344.22,143.606 356.5,145C 363.053,147.601 366.553,152.434 367,159.5C 367.958,187.874 367.624,216.207 366,244.5C 362.091,252.871 355.591,256.037 346.5,254C 339.813,251.454 336.48,246.621 336.5,239.5C 314.866,242.565 296.699,236.231 282,220.5C 269.333,201.167 269.333,181.833 282,162.5C 291.826,150.671 304.326,144.337 319.5,143.5 Z M 159.5,287.5 C 223.501,287.333 287.501,287.5 351.5,288C 365.344,291.187 369.51,299.354 364,312.5C 360.736,316.382 356.57,318.549 351.5,319C 287.5,319.667 223.5,319.667 159.5,319C 145.656,315.813 141.49,307.646 147,294.5C 150.464,290.69 154.631,288.356 159.5,287.5 Z"/></g>
<g><path style="opacity:1" fill="#000000" d="M 206.5,151.5 C 207.497,151.47 208.164,151.97 208.5,153C 211.568,160.468 214.901,167.801 218.5,175C 211.167,175.667 203.833,175.667 196.5,175C 200.532,167.439 203.865,159.606 206.5,151.5 Z"/></g>
<g><path style="opacity:1" fill="#000000" d="M 313.5,175.5 C 320.833,175.5 328.167,175.5 335.5,175.5C 335.5,186.167 335.5,196.833 335.5,207.5C 328.159,207.666 320.826,207.5 313.5,207C 304.518,202.527 301.351,195.36 304,185.5C 306.022,180.98 309.189,177.647 313.5,175.5 Z"/></g>
<g><path style="opacity:1" fill="#000000" d="M 395.5,429.5 C 396.833,429.5 398.167,429.5 399.5,429.5C 399.397,453.541 388.063,469.707 365.5,478C 324.712,479.156 283.878,479.656 243,479.5C 203.5,479.333 164,479.167 124.5,479C 115.565,477.032 107.565,473.199 100.5,467.5C 105.587,458.995 110.42,450.328 115,441.5C 118.414,436.748 122.914,433.581 128.5,432C 213.833,431.667 299.167,431.333 384.5,431C 388.356,430.823 392.023,430.323 395.5,429.5 Z"/></g>
</svg>
