<?xml version="1.0" encoding="UTF-8"?>
<!DOCTYPE svg PUBLIC "-//W3C//DTD SVG 1.1//EN" "http://www.w3.org/Graphics/SVG/1.1/DTD/svg11.dtd">
<svg xmlns="http://www.w3.org/2000/svg" version="1.1" width="512px" height="512px" style="shape-rendering:geometricPrecision; text-rendering:geometricPrecision; image-rendering:optimizeQuality; fill-rule:evenodd; clip-rule:evenodd" xmlns:xlink="http://www.w3.org/1999/xlink">
<g><path style="opacity:1" fill="#000000" d="M 8.5,-0.5 C 44.5,-0.5 80.5,-0.5 116.5,-0.5C 121.234,1.73934 124.401,5.40601 126,10.5C 126.667,45.1667 126.667,79.8333 126,114.5C 124.167,120.333 120.333,124.167 114.5,126C 79.8333,126.667 45.1667,126.667 10.5,126C 5.40601,124.401 1.73934,121.234 -0.5,116.5C -0.5,80.5 -0.5,44.5 -0.5,8.5C 0.803551,7.01307 1.97022,5.3464 3,3.5C 5.01533,2.30342 6.84866,0.970083 8.5,-0.5 Z M 29.5,29.5 C 51.5,29.5 73.5,29.5 95.5,29.5C 95.5,51.5 95.5,73.5 95.5,95.5C 73.5,95.5 51.5,95.5 29.5,95.5C 29.5,73.5 29.5,51.5 29.5,29.5 Z"/></g>
<g><path style="opacity:1" fill="#000000" d="M 511.5,57.5 C 511.5,61.1667 511.5,64.8333 511.5,68.5C 509.047,74.0755 504.714,77.2422 498.5,78C 400.833,78.6667 303.167,78.6667 205.5,78C 196.838,76.5025 192.172,71.3359 191.5,62.5C 192.408,55.4421 196.075,50.6088 202.5,48C 302.167,47.3333 401.833,47.3333 501.5,48C 506.045,50.0482 509.378,53.2149 511.5,57.5 Z"/></g>
<g><path style="opacity:1" fill="#000000" d="M -0.5,309.5 C -0.5,273.5 -0.5,237.5 -0.5,201.5C 1.95285,195.924 6.28619,192.758 12.5,192C 47.5472,191.027 82.5472,191.36 117.5,193C 121.817,195.315 124.65,198.815 126,203.5C 126.667,238.167 126.667,272.833 126,307.5C 124.65,312.185 121.817,315.685 117.5,318C 82.5472,319.64 47.5472,319.973 12.5,319C 6.28619,318.242 1.95285,315.076 -0.5,309.5 Z M 29.5,222.5 C 51.5,222.5 73.5,222.5 95.5,222.5C 95.5,244.5 95.5,266.5 95.5,288.5C 73.5,288.5 51.5,288.5 29.5,288.5C 29.5,266.5 29.5,244.5 29.5,222.5 Z"/></g>
<g><path style="opacity:1" fill="#000000" d="M 511.5,249.5 C 511.5,253.5 511.5,257.5 511.5,261.5C 509.685,265.479 506.685,268.312 502.5,270C 402.167,270.667 301.833,270.667 201.5,270C 195.342,267.203 192.008,262.37 191.5,255.5C 192.008,248.63 195.342,243.797 201.5,241C 301.833,240.333 402.167,240.333 502.5,241C 506.685,242.688 509.685,245.521 511.5,249.5 Z"/></g>
<g><path style="opacity:1" fill="#000000" d="M 116.5,511.5 C 80.5,511.5 44.5,511.5 8.5,511.5C 7.01307,510.196 5.3464,509.03 3.5,508C 2.30342,505.985 0.970083,504.151 -0.5,502.5C -0.5,466.5 -0.5,430.5 -0.5,394.5C 1.73934,389.766 5.40601,386.599 10.5,385C 45.1667,384.333 79.8333,384.333 114.5,385C 120.333,386.833 124.167,390.667 126,396.5C 126.667,431.167 126.667,465.833 126,500.5C 124.401,505.594 121.234,509.261 116.5,511.5 Z M 29.5,415.5 C 51.5,415.5 73.5,415.5 95.5,415.5C 95.5,437.5 95.5,459.5 95.5,481.5C 73.5,481.5 51.5,481.5 29.5,481.5C 29.5,459.5 29.5,437.5 29.5,415.5 Z"/></g>
<g><path style="opacity:1" fill="#000000" d="M 511.5,442.5 C 511.5,446.167 511.5,449.833 511.5,453.5C 509.378,457.785 506.045,460.952 501.5,463C 401.833,463.667 302.167,463.667 202.5,463C 196.075,460.391 192.408,455.558 191.5,448.5C 192.172,439.664 196.838,434.497 205.5,433C 303.167,432.333 400.833,432.333 498.5,433C 504.714,433.758 509.047,436.924 511.5,442.5 Z"/></g>
</svg>
