<?xml version="1.0" encoding="UTF-8"?>
<!DOCTYPE svg PUBLIC "-//W3C//DTD SVG 1.1//EN" "http://www.w3.org/Graphics/SVG/1.1/DTD/svg11.dtd">
<svg xmlns="http://www.w3.org/2000/svg" version="1.1" width="512px" height="512px" style="shape-rendering:geometricPrecision; text-rendering:geometricPrecision; image-rendering:optimizeQuality; fill-rule:evenodd; clip-rule:evenodd" xmlns:xlink="http://www.w3.org/1999/xlink">
<g><path style="opacity:1" fill="#020202" d="M 198.5,-0.5 C 215.167,-0.5 231.833,-0.5 248.5,-0.5C 293.472,2.27647 337.472,10.7765 380.5,25C 402.5,32.4081 421.666,44.2414 438,60.5C 451.281,78.2665 454.781,97.9331 448.5,119.5C 448.833,120.167 449.167,120.833 449.5,121.5C 463.499,125.832 468.999,135.165 466,149.5C 462.683,161.799 458.517,173.799 453.5,185.5C 467.867,203.221 470.367,222.555 461,243.5C 451.335,258.649 437.502,266.982 419.5,268.5C 403.249,318.586 371.249,354.752 323.5,377C 361.516,398.148 385.683,429.981 396,472.5C 401,491.069 394.834,504.069 377.5,511.5C 296.167,511.5 214.833,511.5 133.5,511.5C 118.035,505.491 111.535,494.157 114,477.5C 123.764,432.932 148.264,399.265 187.5,376.5C 140.309,354.139 108.476,318.139 92,268.5C 57.8113,263.64 42.1447,243.974 45,209.5C 47.6373,197.044 54.1373,187.211 64.5,180C 61.4461,164.458 59.4461,148.791 58.5,133C 59.2806,128.386 61.9473,125.553 66.5,124.5C 69.7926,125.41 72.2926,127.41 74,130.5C 74.9732,144.899 76.4732,159.232 78.5,173.5C 84.7129,171.982 91.0463,171.149 97.5,171C 117.77,159.397 133.27,143.23 144,122.5C 147.489,118.162 151.656,114.829 156.5,112.5C 163.421,110.064 170.421,109.897 177.5,112C 195.126,122.312 213.459,131.312 232.5,139C 256.46,147.459 281.127,152.459 306.5,154C 309.789,155.41 311.456,157.91 311.5,161.5C 309.756,166.456 306.256,168.789 301,168.5C 261.89,165.581 225.057,154.914 190.5,136.5C 184.519,132.506 178.185,129.006 171.5,126C 167.218,125.035 163.218,125.702 159.5,128C 146.049,151.784 127.549,170.617 104,184.5C 91.906,256.46 116.073,312.627 176.5,353C 198.889,366.74 223.222,373.907 249.5,374.5C 300.802,375.427 342.968,356.427 376,317.5C 409.926,273.196 418.926,224.196 403,170.5C 400.196,164.339 395.363,161.006 388.5,160.5C 370.167,164.417 351.667,167.084 333,168.5C 328.715,168.048 326.215,165.715 325.5,161.5C 325.269,158.215 326.603,155.715 329.5,154C 347.7,152.633 365.7,149.966 383.5,146C 402.337,144.745 414.004,153.245 418.5,171.5C 425.875,171.629 432.875,173.296 439.5,176.5C 444.878,165.701 448.878,154.368 451.5,142.5C 451.124,140.617 450.124,139.117 448.5,138C 445.352,136.395 442.019,135.395 438.5,135C 435.943,134.315 434.109,132.815 433,130.5C 433.234,118.481 434.068,106.481 435.5,94.5C 434.433,81.5794 428.766,71.0794 418.5,63C 404.834,52.6649 389.834,44.6649 373.5,39C 317.331,20.5019 259.664,12.5019 200.5,15C 174.175,17.0876 151.342,26.9209 132,44.5C 128.648,48.5486 125.815,52.8819 123.5,57.5C 122.314,60.3397 120.314,62.5064 117.5,64C 99.1118,63.2709 86.6118,71.4375 80,88.5C 77.8529,95.0891 76.0196,101.756 74.5,108.5C 72.5128,110.327 70.1795,111.327 67.5,111.5C 64.4783,111.572 62.3116,110.238 61,107.5C 61.054,89.0011 67.554,73.1678 80.5,60C 88.9509,53.2803 98.6175,49.6137 109.5,49C 123.883,26.3118 144.216,11.6451 170.5,5C 179.873,2.64448 189.206,0.811142 198.5,-0.5 Z"/></g>
<g><path style="opacity:1" fill="#c06f63" d="M 325.5,161.5 C 320.833,161.5 316.167,161.5 311.5,161.5C 311.456,157.91 309.789,155.41 306.5,154C 281.127,152.459 256.46,147.459 232.5,139C 213.459,131.312 195.126,122.312 177.5,112C 170.421,109.897 163.421,110.064 156.5,112.5C 155.66,101.36 153.16,90.3602 149,79.5C 145.862,74.7286 142.362,70.2286 138.5,66C 133.589,62.9027 128.589,60.0694 123.5,57.5C 125.815,52.8819 128.648,48.5486 132,44.5C 151.342,26.9209 174.175,17.0876 200.5,15C 259.664,12.5019 317.331,20.5019 373.5,39C 389.834,44.6649 404.834,52.6649 418.5,63C 428.766,71.0794 434.433,81.5794 435.5,94.5C 434.068,106.481 433.234,118.481 433,130.5C 434.109,132.815 435.943,134.315 438.5,135C 442.019,135.395 445.352,136.395 448.5,138C 450.124,139.117 451.124,140.617 451.5,142.5C 448.878,154.368 444.878,165.701 439.5,176.5C 432.875,173.296 425.875,171.629 418.5,171.5C 414.004,153.245 402.337,144.745 383.5,146C 365.7,149.966 347.7,152.633 329.5,154C 326.603,155.715 325.269,158.215 325.5,161.5 Z"/></g>
<g><path style="opacity:1" fill="#a76350" d="M 123.5,57.5 C 128.589,60.0694 133.589,62.9027 138.5,66C 142.362,70.2286 145.862,74.7286 149,79.5C 153.16,90.3602 155.66,101.36 156.5,112.5C 151.656,114.829 147.489,118.162 144,122.5C 133.27,143.23 117.77,159.397 97.5,171C 91.0463,171.149 84.7129,171.982 78.5,173.5C 76.4732,159.232 74.9732,144.899 74,130.5C 72.2926,127.41 69.7926,125.41 66.5,124.5C 66.2307,120.069 66.564,115.735 67.5,111.5C 70.1795,111.327 72.5128,110.327 74.5,108.5C 76.0196,101.756 77.8529,95.0891 80,88.5C 86.6118,71.4375 99.1118,63.2709 117.5,64C 120.314,62.5064 122.314,60.3397 123.5,57.5 Z"/></g>
<g><path style="opacity:1" fill="#f8b99b" d="M 190.5,136.5 C 179.268,150.568 166.768,163.568 153,175.5C 138.912,194.667 134.245,216 139,239.5C 150.456,305.44 187.289,350.44 249.5,374.5C 223.222,373.907 198.889,366.74 176.5,353C 116.073,312.627 91.906,256.46 104,184.5C 127.549,170.617 146.049,151.784 159.5,128C 163.218,125.702 167.218,125.035 171.5,126C 178.185,129.006 184.519,132.506 190.5,136.5 Z"/></g>
<g><path style="opacity:1" fill="#f9cdba" d="M 190.5,136.5 C 225.057,154.914 261.89,165.581 301,168.5C 306.256,168.789 309.756,166.456 311.5,161.5C 316.167,161.5 320.833,161.5 325.5,161.5C 326.215,165.715 328.715,168.048 333,168.5C 351.667,167.084 370.167,164.417 388.5,160.5C 395.363,161.006 400.196,164.339 403,170.5C 418.926,224.196 409.926,273.196 376,317.5C 342.968,356.427 300.802,375.427 249.5,374.5C 187.289,350.44 150.456,305.44 139,239.5C 134.245,216 138.912,194.667 153,175.5C 166.768,163.568 179.268,150.568 190.5,136.5 Z"/></g>
<g><path style="opacity:1" fill="#eea486" d="M 86.5,186.5 C 87.4972,186.47 88.1639,186.97 88.5,188C 87.2039,192.071 86.3706,196.238 86,200.5C 84.7992,217.957 85.6325,235.291 88.5,252.5C 64.4227,246.017 55.5894,230.684 62,206.5C 67.2766,196.134 75.4433,189.467 86.5,186.5 Z"/></g>
<g><path style="opacity:1" fill="#f4b798" d="M 422.5,186.5 C 440.373,190.369 450.04,201.369 451.5,219.5C 450.011,237.657 440.344,248.657 422.5,252.5C 426.464,230.485 426.464,208.485 422.5,186.5 Z"/></g>
<g><path style="opacity:1" fill="#040303" d="M 197.5,218.5 C 190.956,221.216 186.956,219.216 185.5,212.5C 185.334,207.489 185.501,202.489 186,197.5C 190.667,192.167 195.333,192.167 200,197.5C 200.667,203.5 200.667,209.5 200,215.5C 199.623,216.942 198.79,217.942 197.5,218.5 Z"/></g>
<g><path style="opacity:1" fill="#040303" d="M 325.5,212.5 C 323.945,219.213 319.945,221.213 313.5,218.5C 312.21,217.942 311.377,216.942 311,215.5C 310.333,209.5 310.333,203.5 311,197.5C 315.667,192.167 320.333,192.167 325,197.5C 325.499,202.489 325.666,207.489 325.5,212.5 Z"/></g>
<g><path style="opacity:1" fill="#080606" d="M 236.5,204.5 C 241.213,204.19 244.88,206.023 247.5,210C 252.803,213.246 258.137,213.246 263.5,210C 268.688,203.006 273.855,202.84 279,209.5C 279.667,211.167 279.667,212.833 279,214.5C 271.718,224.488 261.885,228.655 249.5,227C 242.933,225.135 237.433,221.635 233,216.5C 230.458,211.361 231.624,207.361 236.5,204.5 Z"/></g>
<g><path style="opacity:1" fill="#f9afba" d="M 185.5,212.5 C 186.956,219.216 190.956,221.216 197.5,218.5C 209.065,231.72 207.732,243.554 193.5,254C 180.99,260.217 168.657,259.884 156.5,253C 142.124,238.678 143.457,226.011 160.5,215C 168.596,211.637 176.929,210.804 185.5,212.5 Z"/></g>
<g><path style="opacity:1" fill="#f9afba" d="M 313.5,218.5 C 319.945,221.213 323.945,219.213 325.5,212.5C 340.424,209.417 352.591,213.751 362,225.5C 366.753,241.139 361.253,251.639 345.5,257C 331.741,260.769 319.907,257.603 310,247.5C 303.354,236.858 304.521,227.192 313.5,218.5 Z"/></g>
<g><path style="opacity:1" fill="#eea586" d="M 217.5,385.5 C 242.817,390.811 268.151,390.811 293.5,385.5C 289.33,412.832 273.497,424.832 246,421.5C 228.472,415.81 218.972,403.81 217.5,385.5 Z"/></g>
<g><path style="opacity:1" fill="#ccccf8" d="M 207.5,407.5 C 203.933,409.557 200.766,412.223 198,415.5C 187.767,427.971 179.601,441.638 173.5,456.5C 173.167,439.154 173.5,421.821 174.5,404.5C 182.7,397.647 191.7,391.981 201.5,387.5C 203.194,394.282 205.194,400.949 207.5,407.5 Z"/></g>
<g><path style="opacity:1" fill="#ece6f9" d="M 173.5,456.5 C 179.601,441.638 187.767,427.971 198,415.5C 200.766,412.223 203.933,409.557 207.5,407.5C 221.732,431.945 242.732,441.112 270.5,435C 293.135,427.189 306.135,411.355 309.5,387.5C 319.3,391.981 328.3,397.647 336.5,404.5C 337.5,435.159 337.833,465.826 337.5,496.5C 282.833,496.5 228.167,496.5 173.5,496.5C 173.5,483.167 173.5,469.833 173.5,456.5 Z"/></g>
<g><path style="opacity:1" fill="#885c4a" d="M 157.5,496.5 C 157.831,471.661 157.498,446.994 156.5,422.5C 156.783,421.711 157.283,421.044 158,420.5C 158.83,446.003 158.663,471.337 157.5,496.5 Z"/></g>
<g><path style="opacity:1" fill="#826350" d="M 354.5,422.5 C 353.502,446.994 353.169,471.661 353.5,496.5C 352.337,471.337 352.17,446.003 353,420.5C 353.717,421.044 354.217,421.711 354.5,422.5 Z"/></g>
<g><path style="opacity:1" fill="#f0a687" d="M 156.5,422.5 C 157.498,446.994 157.831,471.661 157.5,496.5C 130.312,500.465 122.145,489.799 133,464.5C 138.522,449.114 146.356,435.114 156.5,422.5 Z"/></g>
<g><path style="opacity:1" fill="#f7b89a" d="M 354.5,422.5 C 369.203,440.234 378.536,460.567 382.5,483.5C 382.319,488.704 379.985,492.538 375.5,495C 368.254,496.391 360.921,496.891 353.5,496.5C 353.169,471.661 353.502,446.994 354.5,422.5 Z"/></g>
</svg>
