<?xml version="1.0" standalone="no"?>
<!DOCTYPE svg PUBLIC "-//W3C//DTD SVG 20010904//EN"
 "http://www.w3.org/TR/2001/REC-SVG-20010904/DTD/svg10.dtd">
<svg version="1.0" xmlns="http://www.w3.org/2000/svg"
 width="512.000000pt" height="512.000000pt" viewBox="0 0 512.000000 512.000000"
 preserveAspectRatio="xMidYMid meet">

<g transform="translate(0.000000,512.000000) scale(0.100000,-0.100000)"
fill="#000000" stroke="none">
<path d="M2365 5109 c-605 -47 -1177 -312 -1611 -747 -1000 -1003 -1000 -2601
0 -3604 253 -253 555 -451 890 -583 447 -175 989 -220 1448 -120 223 49 340
90 568 201 334 163 486 269 715 499 461 461 689 964 736 1619 13 185 1 423
-32 616 -133 782 -637 1469 -1349 1839 -320 166 -638 255 -1005 281 -157 11
-202 11 -360 -1z m-595 -1381 c35 -15 130 -104 426 -399 l380 -380 375 382
c410 419 412 420 524 420 152 0 259 -98 260 -241 0 -128 5 -122 -421 -550
l-384 -385 381 -380 c210 -210 389 -397 400 -418 45 -85 31 -204 -34 -288 -42
-56 -123 -99 -186 -99 -92 0 -129 28 -423 317 -150 147 -326 319 -390 382
l-118 116 -387 -387 c-412 -411 -432 -427 -523 -428 -63 0 -137 38 -188 95
-47 54 -62 95 -62 175 0 111 13 127 428 542 l377 378 -392 392 c-427 429 -413
411 -413 530 0 80 48 172 111 210 78 49 169 54 259 16z"/>
</g>
</svg>
