<?xml version="1.0" standalone="no"?>
<!DOCTYPE svg PUBLIC "-//W3C//DTD SVG 20010904//EN"
 "http://www.w3.org/TR/2001/REC-SVG-20010904/DTD/svg10.dtd">
<svg version="1.0" xmlns="http://www.w3.org/2000/svg"
 width="512.000000pt" height="512.000000pt" viewBox="0 0 512.000000 512.000000"
 preserveAspectRatio="xMidYMid meet">

<g transform="translate(0.000000,512.000000) scale(0.100000,-0.100000)"
fill="#000000" stroke="none">
<path d="M3533 4198 c-118 -232 -142 -256 -371 -372 -169 -85 -191 -102 -176
-140 3 -9 83 -55 176 -103 229 -116 247 -134 364 -362 94 -184 111 -204 153
-175 11 8 59 91 106 184 108 214 134 239 349 347 167 83 186 96 186 128 0 32
-19 45 -189 130 -212 106 -238 131 -342 339 -45 89 -88 169 -97 179 -8 9 -28
17 -43 17 -26 0 -34 -11 -116 -172z"/>
<path d="M1640 3913 c-40 -16 -75 -75 -245 -413 -282 -560 -286 -564 -846
-845 -413 -207 -424 -215 -417 -297 3 -28 13 -57 24 -69 10 -12 172 -98 358
-191 186 -93 371 -191 410 -216 87 -57 209 -176 263 -257 22 -33 120 -219 216
-412 116 -230 185 -358 202 -372 40 -30 86 -36 130 -15 34 16 47 38 201 347
181 362 220 429 297 525 104 128 177 176 590 383 316 159 381 195 398 222 23
37 21 92 -5 133 -12 16 -127 80 -369 200 -194 97 -377 193 -407 213 -75 49
-203 173 -255 246 -23 33 -124 223 -224 422 -123 246 -189 368 -206 379 -26
17 -91 27 -115 17z"/>
<path d="M4303 2079 c-16 -6 -47 -58 -108 -178 -113 -227 -134 -248 -363 -364
-169 -86 -190 -104 -176 -141 3 -9 83 -55 176 -102 229 -116 253 -140 372
-372 87 -173 88 -173 119 -170 30 3 36 11 116 166 117 229 145 258 354 363
179 90 197 102 197 134 0 32 -18 44 -195 133 -210 106 -230 126 -344 348 -47
92 -95 173 -106 180 -13 8 -28 9 -42 3z"/>
</g>
</svg>
