<?xml version="1.0" standalone="no"?>
<!DOCTYPE svg PUBLIC "-//W3C//DTD SVG 20010904//EN"
 "http://www.w3.org/TR/2001/REC-SVG-20010904/DTD/svg10.dtd">
<svg version="1.0" xmlns="http://www.w3.org/2000/svg"
 width="512.000000pt" height="512.000000pt" viewBox="0 0 512.000000 512.000000"
 preserveAspectRatio="xMidYMid meet">

<g transform="translate(0.000000,512.000000) scale(0.100000,-0.100000)"
fill="#000000" stroke="none">
<path d="M2354 5110 c-500 -42 -969 -226 -1374 -538 -109 -85 -347 -323 -432
-432 -436 -566 -618 -1251 -518 -1950 64 -440 239 -850 519 -1210 81 -105 311
-337 410 -415 563 -442 1238 -630 1940 -539 451 58 890 246 1261 538 97 76
320 299 396 396 292 370 476 804 540 1270 23 169 23 491 0 659 -40 295 -111
528 -241 796 -340 699 -985 1205 -1750 1374 -216 48 -535 69 -751 51z m407
-1183 c96 -46 176 -148 199 -252 15 -66 -34 -1299 -55 -1370 -27 -96 -93 -172
-195 -226 -39 -21 -59 -24 -150 -24 -101 0 -108 1 -168 34 -92 50 -155 129
-181 226 -17 64 -64 1304 -51 1360 27 122 116 223 233 266 43 16 73 19 182 16
118 -2 135 -5 186 -30z m-56 -2081 c77 -35 147 -104 181 -179 25 -54 29 -73
29 -152 -1 -77 -5 -98 -29 -147 -35 -73 -100 -139 -174 -175 -50 -25 -68 -28
-152 -28 -84 0 -102 3 -152 28 -74 36 -139 102 -174 175 -24 49 -28 70 -29
147 0 79 4 98 29 152 44 97 141 177 243 203 61 15 167 4 228 -24z"/>
</g>
</svg>
