<?xml version="1.0" standalone="no"?>
<!DOCTYPE svg PUBLIC "-//W3C//DTD SVG 20010904//EN"
 "http://www.w3.org/TR/2001/REC-SVG-20010904/DTD/svg10.dtd">
<svg version="1.0" xmlns="http://www.w3.org/2000/svg"
 width="512.000000pt" height="512.000000pt" viewBox="0 0 512.000000 512.000000"
 preserveAspectRatio="xMidYMid meet">

<g transform="translate(0.000000,512.000000) scale(0.100000,-0.100000)"
fill="#000000" stroke="none">
<path d="M2325 5108 c-249 -25 -530 -107 -764 -224 -514 -256 -899 -675 -1112
-1211 -39 -97 -43 -117 -43 -193 -1 -102 20 -150 96 -222 l49 -47 -26 -39
c-41 -61 -65 -138 -72 -221 -16 -213 124 -421 330 -488 l56 -18 -90 -125
c-106 -149 -124 -190 -123 -285 0 -65 4 -79 48 -160 128 -241 338 -462 602
-634 55 -36 137 -84 182 -106 45 -22 82 -42 82 -45 0 -3 -27 -36 -61 -75 -122
-140 -211 -294 -273 -473 -50 -145 -71 -262 -56 -320 24 -95 67 -150 150 -194
l45 -23 1194 -3 c1326 -3 1258 -6 1339 64 83 71 111 163 87 290 -43 230 -163
473 -324 659 -34 39 -61 72 -61 75 0 3 37 23 82 45 324 159 642 459 785 743
43 84 48 101 48 161 0 90 -19 134 -124 281 l-90 125 56 18 c293 96 425 457
258 709 l-26 39 49 47 c74 70 96 120 97 217 0 94 -29 181 -128 384 -411 841
-1322 1344 -2262 1249z m425 -149 c784 -71 1454 -564 1758 -1291 66 -159 72
-198 42 -257 -16 -33 -32 -48 -68 -63 -42 -19 -58 -20 -171 -14 -615 33 -1140
288 -1606 779 -91 97 -126 127 -145 127 -19 0 -55 -31 -150 -131 -129 -136
-258 -251 -370 -333 -79 -57 -90 -71 -90 -111 0 -54 58 -87 108 -61 62 32 224
167 360 300 l142 139 138 -134 c162 -159 235 -219 403 -332 266 -177 571 -300
898 -361 47 -9 86 -17 87 -19 1 -1 8 -43 15 -92 16 -124 6 -372 -20 -497 -47
-216 -145 -436 -272 -608 -59 -80 -69 -100 -67 -129 4 -44 44 -77 83 -67 35 9
71 49 150 166 53 79 142 250 182 349 9 24 10 24 50 -30 152 -206 160 -228 115
-323 -125 -268 -414 -539 -753 -708 l-120 -59 -37 29 c-20 16 -70 50 -111 75
l-73 46 93 47 c165 82 330 198 349 244 13 32 0 74 -29 89 -34 19 -67 12 -107
-20 -172 -139 -405 -250 -639 -305 -112 -27 -134 -28 -335 -28 -201 0 -223 1
-335 28 -608 142 -1056 598 -1187 1210 -18 82 -22 135 -22 286 -1 102 3 211 7
242 8 56 9 57 45 64 211 35 425 100 615 184 121 54 157 83 157 127 0 29 -41
73 -68 73 -11 0 -61 -20 -113 -44 -277 -129 -541 -194 -856 -212 -113 -6 -124
-5 -167 16 -52 25 -86 77 -86 130 0 41 79 241 142 360 167 313 397 568 688
765 407 274 888 399 1370 354z m-1885 -2001 c0 -123 4 -253 8 -290 8 -65 8
-68 -13 -68 -36 0 -129 52 -167 93 -117 130 -118 326 -1 450 34 36 38 37 104
37 l69 0 0 -222z m3565 185 c170 -193 76 -489 -174 -547 -23 -6 -27 -4 -23 8
19 49 29 209 25 384 l-5 192 72 0 c72 0 74 -1 105 -37z m-3413 -943 c154 -333
427 -618 754 -789 l122 -64 -53 -31 c-29 -17 -79 -50 -111 -73 l-58 -42 -77
36 c-350 161 -666 451 -796 729 -45 95 -37 117 115 323 40 54 41 54 50 30 6
-13 30 -67 54 -119z m1421 -980 c130 -10 314 0 435 24 78 15 77 16 51 -75 -33
-112 -102 -190 -214 -243 -57 -27 -75 -30 -150 -30 -173 2 -309 101 -360 263
-32 101 -32 101 48 84 37 -7 122 -18 190 -23z m-400 -47 c46 -243 275 -433
522 -433 256 0 487 200 525 455 4 25 10 45 13 45 13 0 144 -77 209 -124 l73
-51 0 -457 0 -458 -820 0 -820 0 0 455 0 455 55 43 c49 37 212 137 225 137 3
0 11 -30 18 -67z m-458 -653 l0 -370 -91 0 c-185 0 -223 61 -164 265 31 108
70 200 118 287 36 65 123 188 132 188 3 0 5 -166 5 -370z m2044 266 c110 -166
196 -388 196 -505 0 -97 -49 -131 -189 -131 l-91 0 0 371 c0 423 -7 402 84
265z"/>
<path d="M1882 3157 c-19 -20 -22 -35 -22 -109 0 -105 16 -132 75 -132 60 0
75 27 75 133 0 74 -3 91 -20 109 -28 30 -80 29 -108 -1z"/>
<path d="M3130 3158 c-17 -18 -20 -35 -20 -109 0 -106 15 -133 75 -133 60 0
75 27 75 133 0 79 -2 90 -23 109 -31 29 -80 29 -107 0z"/>
<path d="M2363 3060 c-26 -10 -43 -39 -43 -72 0 -30 59 -87 120 -119 63 -32
175 -32 242 0 57 28 118 92 118 125 0 33 -29 65 -66 72 -24 5 -38 -1 -72 -29
-69 -58 -140 -57 -208 2 -36 32 -53 36 -91 21z"/>
</g>
</svg>
